# xmcd CD database file
#
# Track frame offsets:
#	150
#	13839
#	29113
#	44426
#	57617
#
# Disc length: 943 seconds
#
# Revision: 0
# Processed by: cddbd v1.5.2PL0 Copyright (c) Steve Scherf et al.
# Submitted via: CDex 1.51
#
DISCID=4703ad05
DTITLE=Tamarama - Wonderland City EP
DYEAR=2008
DGENRE=Salsa
TTITLE0=Tamarama - 01 - Sunday Morning
TTITLE1=Tamarama - 02 - Dusty Rd
TTITLE2=Tamarama - 03 - Everything To Me
TTITLE3=Tamarama - 04 - Sunsets
TTITLE4=Tamarama - 05 - Blue Skies Prevail
EXTD=YEAR: 2008
EXTT0=
EXTT1=
EXTT2=
EXTT3=
EXTT4=
PLAYORDER=
